<svg xmlns="http://www.w3.org/2000/svg" xmlns:xlink="http://www.w3.org/1999/xlink" version="1.1" x="0px" y="0px" viewBox="0 -12 100 125" enable-background="new 0 0 100 100" xml:space="preserve"><path d="M86.854,5.95H13.146c-0.613,0-1.11,0.497-1.11,1.11v17.056v68.823c0,0.613,0.497,1.109,1.11,1.109h73.708  c0.612,0,1.109-0.497,1.109-1.109V24.117V7.061C87.964,6.447,87.467,5.95,86.854,5.95z M14.258,25.227h71.484v7.108h-23.21  C59.58,30.702,54.914,29.729,50,29.729c-4.916,0-9.583,0.973-12.532,2.606h-23.21V25.227z M14.258,8.171h71.484v14.835H14.258V8.171  z M14.258,91.829V33.445h23.355c0.095,0,0.191-0.025,0.275-0.072c2.779-1.587,7.308-2.533,12.111-2.533  c4.802,0,9.33,0.946,12.112,2.533c0.084,0.047,0.18,0.072,0.273,0.072H85.74v58.384H14.258z"></path><path d="M23.527,12.859c-1.504,0-2.728,1.224-2.728,2.729s1.224,2.729,2.728,2.729c1.506,0,2.73-1.225,2.73-2.729  S25.033,12.859,23.527,12.859z M23.527,17.208c-0.891,0-1.617-0.727-1.617-1.619c0-0.892,0.727-1.619,1.617-1.619  c0.894,0,1.62,0.728,1.62,1.619C25.147,16.481,24.421,17.208,23.527,17.208z"></path><path d="M33.632,12.859c-1.506,0-2.729,1.224-2.729,2.729s1.223,2.729,2.729,2.729c1.505,0,2.729-1.225,2.729-2.729  S35.137,12.859,33.632,12.859z M33.632,17.208c-0.892,0-1.618-0.727-1.618-1.619c0-0.892,0.727-1.619,1.618-1.619  c0.894,0,1.62,0.728,1.62,1.619C35.252,16.481,34.525,17.208,33.632,17.208z"></path><path d="M43.733,12.859c-1.506,0-2.729,1.224-2.729,2.729s1.223,2.729,2.729,2.729c1.504,0,2.728-1.225,2.728-2.729  S45.237,12.859,43.733,12.859z M43.733,17.208c-0.892,0-1.618-0.727-1.618-1.619c0-0.892,0.727-1.619,1.618-1.619  s1.617,0.728,1.617,1.619C45.351,16.481,44.624,17.208,43.733,17.208z"></path><path d="M53.836,12.859c-1.504,0-2.729,1.224-2.729,2.729s1.225,2.729,2.729,2.729c1.506,0,2.729-1.225,2.729-2.729  S55.342,12.859,53.836,12.859z M53.836,17.208c-0.893,0-1.617-0.727-1.617-1.619c0-0.892,0.727-1.619,1.617-1.619  s1.618,0.728,1.618,1.619C55.454,16.481,54.729,17.208,53.836,17.208z"></path><path d="M78.646,12.859H63.303c-0.306,0-0.556,0.249-0.556,0.555v4.348c0,0.307,0.25,0.555,0.556,0.555h15.344  c0.306,0,0.555-0.249,0.555-0.555v-4.348C79.2,13.108,78.951,12.859,78.646,12.859z M78.09,17.208H63.857V13.97H78.09V17.208z"></path></svg>
