<svg xmlns="http://www.w3.org/2000/svg" xmlns:xlink="http://www.w3.org/1999/xlink" version="1.1" x="0px" y="0px" viewBox="16 0 71 90" style="enable-background:new 0 0 100 100;" xml:space="preserve"><g><path d="M19.8,17.4V79h61.6V17.4H19.8z M79.7,77.3h-8.1v-4.1H70v4.1H58.4v-4.1h-1.7v4.1H45.4v-4.1h-1.7v4.1h-12v-4.1h-1.7v4.1h-8.6   V19.1h58.3V77.3z"></path><path d="M37.8,44.8c5.5,0,10-4.5,10-10s-4.5-10-10-10s-10,4.5-10,10S32.3,44.8,37.8,44.8z M37.8,26.5c4.6,0,8.3,3.7,8.3,8.3   s-3.7,8.3-8.3,8.3s-8.3-3.7-8.3-8.3S33.2,26.5,37.8,26.5z"></path><path d="M63.5,44.8c5.5,0,10-4.5,10-10s-4.5-10-10-10c-5.5,0-10,4.5-10,10S57.9,44.8,63.5,44.8z M63.5,26.5c4.6,0,8.3,3.7,8.3,8.3   s-3.7,8.3-8.3,8.3c-4.6,0-8.3-3.7-8.3-8.3S58.9,26.5,63.5,26.5z"></path><path d="M37.8,68.9c5.5,0,10-4.5,10-10s-4.5-10-10-10s-10,4.5-10,10S32.3,68.9,37.8,68.9z M37.8,50.5c4.6,0,8.3,3.7,8.3,8.3   s-3.7,8.3-8.3,8.3s-8.3-3.7-8.3-8.3S33.2,50.5,37.8,50.5z"></path><path d="M63.5,68.9c5.5,0,10-4.5,10-10s-4.5-10-10-10c-5.5,0-10,4.5-10,10S57.9,68.9,63.5,68.9z M63.5,50.5c4.6,0,8.3,3.7,8.3,8.3   s-3.7,8.3-8.3,8.3c-4.6,0-8.3-3.7-8.3-8.3S58.9,50.5,63.5,50.5z"></path></g></svg>
