<svg xmlns="http://www.w3.org/2000/svg" xmlns:xlink="http://www.w3.org/1999/xlink" version="1.1" x="0px" y="0px" viewBox="0 -12 100 125" style="enable-background:new 0 0 100 100;" xml:space="preserve"><g><path d="M13.5,6.7v86.7H89V6.7H13.5z M86.7,9v17.6H15.8V9H86.7z M86.7,28.9v52.9H15.8V28.9H86.7z M15.8,91v-6.9h70.9V91H15.8z"></path><path d="M80.6,75.6V34.4H21.9v41.2H80.6z M24.2,36.7h54.1v36.5H24.2V36.7z"></path><path d="M27.9,24.3c3.3,0,6-2.7,6-6s-2.7-6-6-6s-6,2.7-6,6S24.6,24.3,27.9,24.3z M27.9,14.7c2,0,3.6,1.6,3.6,3.6s-1.6,3.6-3.6,3.6   s-3.6-1.6-3.6-3.6S25.9,14.7,27.9,14.7z"></path><rect x="51.6" y="15.2" width="2.3" height="5.5"></rect><rect x="60.2" y="15.2" width="2.3" height="5.5"></rect><rect x="69.7" y="15.2" width="2.3" height="5.5"></rect><rect x="78.3" y="15.2" width="2.3" height="5.5"></rect></g></svg>
